<svg xmlns="http://www.w3.org/2000/svg" viewBox="0 0 420 260">
  <defs>
    <radialGradient id="bg" cx=".52" cy=".42" r=".72"><stop stop-color="#1132a8"/><stop offset=".56" stop-color="#090a3a"/><stop offset="1" stop-color="#040414"/></radialGradient>
    <linearGradient id="orb" x1="0" x2="1"><stop stop-color="#21f4ff"/><stop offset="1" stop-color="#ff31dd"/></linearGradient>
    <filter id="glow"><feGaussianBlur stdDeviation="5" result="b"/><feMerge><feMergeNode in="b"/><feMergeNode in="SourceGraphic"/></feMerge></filter>
  </defs>
  <rect width="420" height="260" rx="10" fill="url(#bg)"/>
  <g opacity=".12" stroke="#45e6ff"><path d="M0 42h420M0 84h420M0 126h420M0 168h420M0 210h420M54 0v260M108 0v260M162 0v260M216 0v260M270 0v260M324 0v260M378 0v260"/></g>
  <g filter="url(#glow)" transform="translate(210 130)">
    <ellipse rx="126" ry="36" fill="none" stroke="#28efff" stroke-width="4" transform="rotate(-22)"/>
    <ellipse rx="126" ry="36" fill="none" stroke="#ff33db" stroke-width="4" transform="rotate(22)"/>
    <ellipse rx="126" ry="36" fill="none" stroke="#5b6dff" stroke-width="4" transform="rotate(90)"/>
    <circle r="34" fill="url(#orb)"/>
    <circle r="13" fill="#fff" opacity=".7"/>
    <g fill="#ff38dc"><circle cx="-82" cy="-58" r="5"/><circle cx="80" cy="-54" r="5"/><circle cx="104" cy="30" r="5"/><circle cx="-95" cy="42" r="5"/></g>
  </g>
  <g fill="#fff" font-family="Arial" font-weight="700" font-size="11">
    <text x="40" y="72">MALUMOT</text><text x="318" y="72">SAVOL</text><text x="40" y="201">SAVOL</text><text x="305" y="201">ESLAB QOLISH</text>
  </g>
</svg>
