<svg xmlns="http://www.w3.org/2000/svg" viewBox="0 0 420 260">
  <defs>
    <radialGradient id="bg" cx=".5" cy=".42" r=".78"><stop stop-color="#1727a5"/><stop offset=".52" stop-color="#08093a"/><stop offset="1" stop-color="#040414"/></radialGradient>
    <linearGradient id="gold" x1="0" x2="1" y1="0" y2="1"><stop stop-color="#fff06c"/><stop offset=".5" stop-color="#ff9d1c"/><stop offset="1" stop-color="#7b3d0c"/></linearGradient>
    <filter id="glow"><feGaussianBlur stdDeviation="5" result="b"/><feMerge><feMergeNode in="b"/><feMergeNode in="SourceGraphic"/></feMerge></filter>
  </defs>
  <rect width="420" height="260" rx="10" fill="url(#bg)"/>
  <g opacity=".12" stroke="#45eaff"><path d="M0 42h420M0 84h420M0 126h420M0 168h420M0 210h420M54 0v260M108 0v260M162 0v260M216 0v260M270 0v260M324 0v260M378 0v260"/></g>
  <g filter="url(#glow)" text-anchor="middle" font-family="Arial" font-weight="900">
    <rect x="161" y="132" width="98" height="88" rx="8" fill="#171550" stroke="#ffbf2f" stroke-width="4"/><text x="210" y="190" fill="#ffec73" font-size="32">1st</text>
    <rect x="55" y="164" width="86" height="56" rx="8" fill="#1b235e" stroke="#9a9dff" stroke-width="3"/><text x="98" y="203" fill="#d9ddff" font-size="24">2nd</text>
    <rect x="279" y="176" width="86" height="44" rx="8" fill="#38163d" stroke="#ff633a" stroke-width="3"/><text x="322" y="206" fill="#ff7a45" font-size="22">3rd</text>
    <path d="M157 67h106v28c0 38-25 61-53 61s-53-23-53-61z" fill="url(#gold)" stroke="#ffe063" stroke-width="4"/>
    <path d="M157 82c-33 0-45 29-29 54 9 15 26 19 44 16M263 82c33 0 45 29 29 54-9 15-26 19-44 16" fill="none" stroke="#ffbf2f" stroke-width="7"/>
    <path d="M195 157h30v23h-30z" fill="#ffbf2f"/><path d="M176 178h68v17h-68z" fill="#ffbf2f"/>
  </g>
</svg>
